<svg width="64" height="64" viewBox="0 0 64 64" fill="none" xmlns="http://www.w3.org/2000/svg">
  <defs>
    <linearGradient id="grad-122" x1="0" y1="0" x2="64" y2="64" gradientUnits="userSpaceOnUse">
      <stop stop-color="#4F46E5"/>
      <stop offset="1" stop-color="#7C3AED"/>
    </linearGradient>
    <linearGradient id="highlight-122" x1="0" y1="0" x2="0" y2="32" gradientUnits="userSpaceOnUse">
      <stop stop-color="white" stop-opacity="1"/>
      <stop offset="1" stop-color="white" stop-opacity="0"/>
    </linearGradient>
    <filter id="shadow-122" x="-4" y="-4" width="72" height="72" filterUnits="userSpaceOnUse">
      <feDropShadow dx="0" dy="2" stdDeviation="2" flood-color="#000" flood-opacity="0.15"/>
    </filter>
  </defs>
  
  <!-- Background with Gradient -->
  <rect width="64" height="64" rx="16" fill="url(#grad-122)"/>
  
  <!-- Subtle Top Highlight -->
  <rect x="0" y="0" width="64" height="64" rx="16" fill="url(#highlight-122)" style="mix-blend-mode: overlay; opacity: 0.2"/>
  
  <!-- Icon with Drop Shadow -->
  <g transform="translate(16, 16) scale(1.333)" filter="url(#shadow-122)">
    <path d="M12 2C6.48 2 2 6.48 2 12c0 2.3.8 4.42 2.15 6.11L2.5 22l4.64-1.29C8.68 21.54 10.29 22 12 22c5.52 0 10-4.48 10-10S17.52 2 12 2zm0 18c-1.46 0-2.84-.33-4.06-.92l-.44-.22-2.54.71.71-2.47-.23-.45C4.65 15.6 4 13.86 4 12c0-4.41 3.59-8 8-8s8 3.59 8 8-3.59 8-8 8zm-2.5-9l1.5 4.5h2l1.5-4.5h-1.8l-.7 2.6-.7-2.6h-1.8z" fill="white"/>
  </g>
</svg>