<svg width="64" height="64" viewBox="0 0 64 64" fill="none" xmlns="http://www.w3.org/2000/svg">
  <defs>
    <linearGradient id="grad-128" x1="0" y1="0" x2="64" y2="64" gradientUnits="userSpaceOnUse">
      <stop stop-color="#059669"/>
      <stop offset="1" stop-color="#047857"/>
    </linearGradient>
    <linearGradient id="highlight-128" x1="0" y1="0" x2="0" y2="32" gradientUnits="userSpaceOnUse">
      <stop stop-color="white" stop-opacity="1"/>
      <stop offset="1" stop-color="white" stop-opacity="0"/>
    </linearGradient>
    <filter id="shadow-128" x="-4" y="-4" width="72" height="72" filterUnits="userSpaceOnUse">
      <feDropShadow dx="0" dy="2" stdDeviation="2" flood-color="#000" flood-opacity="0.15"/>
    </filter>
  </defs>
  
  <!-- Background with Gradient -->
  <rect width="64" height="64" rx="16" fill="url(#grad-128)"/>
  
  <!-- Subtle Top Highlight -->
  <rect x="0" y="0" width="64" height="64" rx="16" fill="url(#highlight-128)" style="mix-blend-mode: overlay; opacity: 0.2"/>
  
  <!-- Icon with Drop Shadow -->
  <g transform="translate(16, 16) scale(1.333)" filter="url(#shadow-128)">
    <path d="M11.8 10.9c-2.27-.59-3-1.2-3-2.15 0-1.09 1.01-1.85 2.7-1.85 1.78 0 2.44.85 2.5 2.1h2.21c-.07-1.72-1.12-3.3-3.21-3.81V3h-3v2.16c-1.94.42-3.5 1.68-3.5 3.61 0 2.31 1.91 3.46 4.7 4.13 2.5.6 3 1.48 3 2.41 0 .69-.49 1.79-2.7 1.79-2.06 0-2.87-.92-2.98-2.1h-2.2c.12 2.19 1.76 3.42 3.68 3.83V21h3v-2.15c1.95-.37 3.5-1.5 3.5-3.55 0-2.84-2.43-3.81-4.7-4.4z" fill="white"/>
  </g>
</svg>