<svg width="64" height="64" viewBox="0 0 64 64" fill="none" xmlns="http://www.w3.org/2000/svg">
  <defs>
    <linearGradient id="grad-152" x1="0" y1="0" x2="64" y2="64" gradientUnits="userSpaceOnUse">
      <stop stop-color="#14B8A6"/>
      <stop offset="1" stop-color="#0F766E"/>
    </linearGradient>
    <linearGradient id="highlight-152" x1="0" y1="0" x2="0" y2="32" gradientUnits="userSpaceOnUse">
      <stop stop-color="white" stop-opacity="1"/>
      <stop offset="1" stop-color="white" stop-opacity="0"/>
    </linearGradient>
    <filter id="shadow-152" x="-4" y="-4" width="72" height="72" filterUnits="userSpaceOnUse">
      <feDropShadow dx="0" dy="2" stdDeviation="2" flood-color="#000" flood-opacity="0.15"/>
    </filter>
  </defs>
  
  <!-- Background with Gradient -->
  <rect width="64" height="64" rx="16" fill="url(#grad-152)"/>
  
  <!-- Subtle Top Highlight -->
  <rect x="0" y="0" width="64" height="64" rx="16" fill="url(#highlight-152)" style="mix-blend-mode: overlay; opacity: 0.2"/>
  
  <!-- Icon with Drop Shadow -->
  <g transform="translate(16, 16) scale(1.333)" filter="url(#shadow-152)">
    <path d="M20 4H4c-1.1 0-1.99.9-1.99 2L2 18c0 1.1.9 2 2 2h16c1.1 0 2-.9 2-2V6c0-1.1-.9-2-2-2zm-5 14H4v-4h11v4zm0-5H4V9h11v4zm5 5h-4V9h4v9z" fill="white"/>
  </g>
</svg>