<svg width="64" height="64" viewBox="0 0 64 64" fill="none" xmlns="http://www.w3.org/2000/svg">
  <defs>
    <linearGradient id="grad-141" x1="0" y1="0" x2="64" y2="64" gradientUnits="userSpaceOnUse">
      <stop stop-color="#06B6D4"/>
      <stop offset="1" stop-color="#0891B2"/>
    </linearGradient>
    <linearGradient id="highlight-141" x1="0" y1="0" x2="0" y2="32" gradientUnits="userSpaceOnUse">
      <stop stop-color="white" stop-opacity="1"/>
      <stop offset="1" stop-color="white" stop-opacity="0"/>
    </linearGradient>
    <filter id="shadow-141" x="-4" y="-4" width="72" height="72" filterUnits="userSpaceOnUse">
      <feDropShadow dx="0" dy="2" stdDeviation="2" flood-color="#000" flood-opacity="0.15"/>
    </filter>
  </defs>
  
  <!-- Background with Gradient -->
  <rect width="64" height="64" rx="16" fill="url(#grad-141)"/>
  
  <!-- Subtle Top Highlight -->
  <rect x="0" y="0" width="64" height="64" rx="16" fill="url(#highlight-141)" style="mix-blend-mode: overlay; opacity: 0.2"/>
  
  <!-- Icon with Drop Shadow -->
  <g transform="translate(16, 16) scale(1.333)" filter="url(#shadow-141)">
    <path d="M12 14c1.66 0 3-1.34 3-3V5c0-1.66-1.34-3-3-3S9 3.34 9 5v6c0 1.66 1.34 3 3 3z" fill="white"/><path d="M17 11c0 2.76-2.24 5-5 5s-5-2.24-5-5H5c0 3.53 2.61 6.43 6 6.92V21h2v-3.08c3.39-.49 6-3.39 6-6.92h-2z" fill="white"/>
  </g>
</svg>