<svg width="64" height="64" viewBox="0 0 64 64" fill="none" xmlns="http://www.w3.org/2000/svg">
  <defs>
    <linearGradient id="grad-125" x1="0" y1="0" x2="64" y2="64" gradientUnits="userSpaceOnUse">
      <stop stop-color="#8B5CF6"/>
      <stop offset="1" stop-color="#6D28D9"/>
    </linearGradient>
    <linearGradient id="highlight-125" x1="0" y1="0" x2="0" y2="32" gradientUnits="userSpaceOnUse">
      <stop stop-color="white" stop-opacity="1"/>
      <stop offset="1" stop-color="white" stop-opacity="0"/>
    </linearGradient>
    <filter id="shadow-125" x="-4" y="-4" width="72" height="72" filterUnits="userSpaceOnUse">
      <feDropShadow dx="0" dy="2" stdDeviation="2" flood-color="#000" flood-opacity="0.15"/>
    </filter>
  </defs>
  
  <!-- Background with Gradient -->
  <rect width="64" height="64" rx="16" fill="url(#grad-125)"/>
  
  <!-- Subtle Top Highlight -->
  <rect x="0" y="0" width="64" height="64" rx="16" fill="url(#highlight-125)" style="mix-blend-mode: overlay; opacity: 0.2"/>
  
  <!-- Icon with Drop Shadow -->
  <g transform="translate(16, 16) scale(1.333)" filter="url(#shadow-125)">
    <path d="M19 3H5c-1.1 0-2 .9-2 2v14c0 1.1.9 2 2 2h14c1.1 0 2-.9 2-2V5c0-1.1-.9-2-2-2zM9 17H7v-7h2v7zm4 0h-2v-4h2v4zm4 0h-2v-2h2v2z" fill="white"/>
  </g>
</svg>