<svg width="64" height="64" viewBox="0 0 64 64" fill="none" xmlns="http://www.w3.org/2000/svg">
  <defs>
    <linearGradient id="grad-127" x1="0" y1="0" x2="64" y2="64" gradientUnits="userSpaceOnUse">
      <stop stop-color="#F59E0B"/>
      <stop offset="1" stop-color="#D97706"/>
    </linearGradient>
    <linearGradient id="highlight-127" x1="0" y1="0" x2="0" y2="32" gradientUnits="userSpaceOnUse">
      <stop stop-color="white" stop-opacity="1"/>
      <stop offset="1" stop-color="white" stop-opacity="0"/>
    </linearGradient>
    <filter id="shadow-127" x="-4" y="-4" width="72" height="72" filterUnits="userSpaceOnUse">
      <feDropShadow dx="0" dy="2" stdDeviation="2" flood-color="#000" flood-opacity="0.15"/>
    </filter>
  </defs>
  
  <!-- Background with Gradient -->
  <rect width="64" height="64" rx="16" fill="url(#grad-127)"/>
  
  <!-- Subtle Top Highlight -->
  <rect x="0" y="0" width="64" height="64" rx="16" fill="url(#highlight-127)" style="mix-blend-mode: overlay; opacity: 0.2"/>
  
  <!-- Icon with Drop Shadow -->
  <g transform="translate(16, 16) scale(1.333)" filter="url(#shadow-127)">
    <path d="M9 21c0 .55.45 1 1 1h4c.55 0 1-.45 1-1v-1H9v1zm3-19C8.14 2 5 5.14 5 9c0 2.38 1.19 4.47 3 5.74V17c0 .55.45 1 1 1h6c.55 0 1-.45 1-1v-2.26c1.81-1.27 3-3.36 3-5.74 0-3.86-3.14-7-7-7z" fill="white"/>
  </g>
</svg>